ply
format ascii 1.0
comment VCGLIB generated
element vertex 34
property float x
property float y
property float z
property int flags
element face 64
property list uchar int vertex_indices
property int flags
end_header
1 1 -1 0 
1.30656 0.541196 -1 0 
1.41421 -0 -1 0 
1.30656 -0.541196 -1 0 
1 -1 -1 0 
0.541196 -1.30656 -1 0 
0 -1.41421 -1 0 
-0.541196 -1.30656 -1 0 
-1 -1 -1 0 
-1.30656 -0.541196 -1 0 
-1.41421 0 -1 0 
-1.30656 0.541196 -1 0 
-1 1 -1 0 
-0.541195 1.30656 -1 0 
1e-006 1.41421 -1 0 
0.541197 1.30656 -1 0 
1 0.999999 1 0 
1.30656 0.541195 1 0 
1.41421 -2e-006 1 0 
1.30656 -0.541198 1 0 
0.999998 -1 1 0 
0.541194 -1.30656 1 0 
-3e-006 -1.41421 1 0 
-0.541199 -1.30656 1 0 
-1 -0.999998 1 0 
-1.30656 -0.541193 1 0 
-1.41421 4e-006 1 0 
-1.30656 0.5412 1 0 
-0.999997 1 1 0 
-0.541192 1.30657 1 0 
5e-006 1.41421 1 0 
0.541201 1.30656 1 0 
0 0 -1 0 
0 0 1 0 
3 32 0 1 0 
3 33 17 16 0 
3 32 1 2 0 
3 33 18 17 0 
3 32 2 3 0 
3 33 19 18 0 
3 32 3 4 0 
3 33 20 19 0 
3 32 4 5 0 
3 33 21 20 0 
3 32 5 6 0 
3 33 22 21 0 
3 32 6 7 0 
3 33 23 22 0 
3 32 7 8 0 
3 33 24 23 0 
3 32 8 9 0 
3 33 25 24 0 
3 32 9 10 0 
3 33 26 25 0 
3 32 10 11 0 
3 33 27 26 0 
3 32 11 12 0 
3 33 28 27 0 
3 32 12 13 0 
3 33 29 28 0 
3 32 13 14 0 
3 33 30 29 0 
3 32 14 15 0 
3 33 31 30 0 
3 15 0 32 0 
3 33 16 31 0 
3 0 16 17 1048576 
3 0 17 1 262144 
3 1 17 18 1048576 
3 1 18 2 262144 
3 2 18 19 1048576 
3 2 19 3 262144 
3 3 19 20 1048576 
3 3 20 4 262144 
3 4 20 21 1048576 
3 4 21 5 262144 
3 5 21 22 1048576 
3 5 22 6 262144 
3 6 22 23 1048576 
3 6 23 7 262144 
3 7 23 24 1048576 
3 7 24 8 262144 
3 8 24 25 1048576 
3 8 25 9 262144 
3 9 25 26 1048576 
3 9 26 10 262144 
3 10 26 27 1048576 
3 10 27 11 262144 
3 11 27 28 1048576 
3 11 28 12 262144 
3 12 28 29 1048576 
3 12 29 13 262144 
3 13 29 30 1048576 
3 13 30 14 262144 
3 14 30 31 1048576 
3 14 31 15 262144 
3 16 0 15 1048576 
3 16 15 31 262144 
